# xmcd
#
# Track frame offsets:
#  150
#  10787
#  19600
#  27702
#  38963
#  50784
#  60229
#  75109
#  91267
#  104151
#  116804
#  134882
#  148724
#  159763
#  171709
#  183968
#
# Disc length: 2612 seconds
#
# Revision: 2
# Processed by: cddbd v1.5.1PL2 Copyright (c) Steve Scherf et al.
# Submitted via: Collectorz.com_Music_Collector 6.11
#
DISCID=da0a3210
DTITLE=Various Artist - Country Most Wanted [CD2)
DYEAR=2005
DGENRE=Country general
TTITLE0=Husky, Ferlin - Gone
TTITLE1=Young, Faron - Alone With You
TTITLE2=Gibson, Don - Blue Blue Day
TTITLE3=Wagoner, Porter - Misery Loves Company
TTITLE4=Greene, Jack - All The Time
TTITLE5=Houston, David - Baby Baby (I Know You're A Lady)
TTITLE6=Fargo, Donna - That Was Yesterday
TTITLE7=Gilley, Mickey - Stand By Me
TTITLE8=Sheppard, T.G. - Devil In The Bottle
TTITLE9=Dunn, Holly - You Really Had Me Going
TTITLE10=Fender, Freddy - Secret Love
TTITLE11=Bandy, Moe - I Cheated Me Right Out Of You
TTITLE12=Murray, Ann - The Last Thing On My Mind
TTITLE13=Spears, Billie Jo - Look What They've Done To My Song
TTITLE14=Owens, Buck - The House Down The Block
TTITLE15=Parton, Dolly - Two Little Orphans
EXTD=
EXTT0=
EXTT1=
EXTT2=
EXTT3=
EXTT4=
EXTT5=
EXTT6=
EXTT7=
EXTT8=
EXTT9=
EXTT10=
EXTT11=
EXTT12=
EXTT13=
EXTT14=
EXTT15=
PLAYORDER=
